<?xml version="1.0" standalone="no"?>
<!DOCTYPE svg PUBLIC "-//W3C//DTD SVG 20010904//EN"
 "http://www.w3.org/TR/2001/REC-SVG-20010904/DTD/svg10.dtd">
<svg version="1.0" xmlns="http://www.w3.org/2000/svg"
 width="786.000000pt" height="786.000000pt" viewBox="0 0 786.000000 786.000000"
 preserveAspectRatio="xMidYMid meet">
<metadata>
Created by potrace 1.11, written by Peter Selinger 2001-2013
</metadata>
<g transform="translate(0.000000,786.000000) scale(0.100000,-0.100000)"
fill="#000000" stroke="none">
<path d="M3665 7854 c-470 -48 -804 -166 -1108 -392 -301 -223 -475 -505 -544
-882 -27 -148 -25 -514 4 -676 85 -468 288 -736 737 -970 284 -148 537 -237
1031 -364 495 -127 718 -215 843 -334 96 -90 142 -200 142 -336 0 -262 -188
-446 -514 -501 -100 -17 -365 -6 -489 21 -375 80 -774 295 -1192 644 -50 42
-87 66 -100 64 -17 -3 -186 -203 -623 -742 l-96 -119 59 -55 c99 -93 295 -244
436 -339 580 -387 1211 -572 1879 -550 655 22 1130 207 1487 580 201 211 322
452 375 747 26 149 28 424 4 585 -67 436 -247 722 -606 960 -276 182 -566 299
-1065 429 -748 194 -957 292 -1052 492 -108 228 -4 496 239 613 110 53 205 71
372 71 445 0 910 -161 1321 -456 47 -33 86 -54 98 -52 14 2 45 37 87 98 563
810 523 750 515 772 -3 7 -52 47 -108 90 -391 293 -891 494 -1442 580 -100 15
-190 21 -390 23 -143 2 -278 1 -300 -1z"/>
<path d="M125 1281 c11 -10 171 -125 355 -257 184 -131 572 -408 862 -616
l527 -378 2063 0 2063 0 875 626 c481 344 879 629 884 635 6 5 -1441 9 -3819
9 -3734 0 -3829 0 -3810 -19z"/>
</g>
</svg>
